<svg width="30" height="30" viewBox="0 0 30 30" fill="none" xmlns="http://www.w3.org/2000/svg">
<path d="M15 0C6.71559 0 0 6.71559 0 15C0 23.2844 6.71559 30 15 30C23.2844 30 30 23.2844 30 15C30 6.71559 23.2844 0 15 0ZM15 0.882353C22.7974 0.882353 29.1176 7.20265 29.1176 15C29.1176 21.4552 24.7809 26.8871 18.8655 28.5696C18.7452 28.3877 18.6576 28.1756 18.6638 27.9268C18.6877 26.9942 18.6638 24.8202 18.6638 24.0217C18.6638 22.6514 17.797 21.6797 17.797 21.6797C17.797 21.6797 24.599 21.7567 24.599 14.4985C24.599 11.6979 23.1376 10.2401 23.1376 10.2401C23.1376 10.2401 23.9055 7.24967 22.8705 5.98173C21.7102 5.85644 19.6316 7.09099 18.7448 7.66716C18.7448 7.66716 17.3408 7.09157 15.0017 7.09157C12.6626 7.09157 11.2569 7.66716 11.2569 7.66716C10.3692 7.09099 8.2915 5.85644 7.1312 5.98173C6.0962 7.24967 6.86409 10.2401 6.86409 10.2401C6.86409 10.2401 5.40097 11.6962 5.40097 14.4968C5.40097 21.755 12.203 21.678 12.203 21.678C12.203 21.678 11.5181 22.4499 11.3672 23.5857C10.898 23.752 10.249 23.9528 9.63006 23.9528C8.15388 23.9528 7.03227 22.5173 6.62109 21.8537C6.21521 21.199 5.38381 20.6491 4.60823 20.6491C4.09734 20.6491 3.84651 20.9051 3.84651 21.1972C3.84651 21.4892 4.56267 21.692 5.03562 22.2329C6.03267 23.3738 6.01486 25.9415 9.56457 25.9415C9.98294 25.9415 10.7342 25.8465 11.3362 25.764C11.3323 26.5972 11.323 27.4095 11.3362 27.9251C11.3424 28.1743 11.2551 28.3875 11.1345 28.5696C5.21908 26.8871 0.882353 21.4552 0.882353 15C0.882353 7.20265 7.20265 0.882353 15 0.882353Z" fill="#F1F1F1"/>
</svg>
