<svg width="32" height="32" viewBox="0 0 32 32" fill="none" xmlns="http://www.w3.org/2000/svg">
<g clip-path="url(#clip0_738_7188)">
<path d="M16.0004 0.992188C24.2867 0.992188 31.0066 7.71208 31.0066 15.9984C31.0066 24.2848 24.2867 31.0047 16.0004 31.0047C7.71403 31.0047 0.994141 24.2848 0.994141 15.9984C0.994141 7.71208 7.71403 0.992188 16.0004 0.992188Z" fill="white" stroke="#1B1B1B"/>
<path d="M17.4889 16.0014L22.0201 10.7389C22.5139 10.1639 22.4514 9.30138 21.8764 8.80138C21.3014 8.30763 20.4389 8.37013 19.9451 8.94513L15.6764 13.9014L11.4139 8.95138C10.9201 8.37638 10.0514 8.31388 9.47638 8.80763C8.90138 9.30138 8.83888 10.1701 9.33263 10.7451L13.8639 16.0014L9.33263 21.2639C8.83888 21.8389 8.90138 22.7014 9.47638 23.2014C9.73263 23.4264 10.0514 23.5326 10.3701 23.5326C10.7576 23.5326 11.1389 23.3701 11.4076 23.0576L15.6701 18.1076L19.9326 23.0576C20.2014 23.3701 20.5889 23.5326 20.9701 23.5326C21.2889 23.5326 21.6076 23.4264 21.8639 23.2014C22.4389 22.7076 22.5014 21.8389 22.0076 21.2639L17.4889 16.0014Z" fill="#1B1B1B"/>
</g>
<defs>
<clipPath id="clip0_738_7188">
<rect width="32" height="32" fill="white"/>
</clipPath>
</defs>
</svg>
