<svg width="33" height="22" viewBox="0 0 33 22" fill="none" xmlns="http://www.w3.org/2000/svg">
<path d="M3.3 0C1.49053 0 0 1.49053 0 3.3V18.7C0 20.5095 1.49053 22 3.3 22H29.7C31.5095 22 33 20.5095 33 18.7V3.3C33 1.49053 31.5095 0 29.7 0H3.3ZM3.75547 2.2H29.2424L19.4455 11.9818C17.8034 13.6213 15.1765 13.6211 13.5352 11.9797L3.75547 2.2ZM30.8 3.75332V18.2467L23.5426 11L30.8 3.75332ZM2.2 3.75547L9.44453 11L2.2 18.2445V3.75547ZM21.9871 12.5533L29.2445 19.8H3.75547L11 12.5555L11.9797 13.5352C14.4611 16.0166 18.5159 16.0184 20.9988 13.5395L21.9871 12.5533Z" fill="white"/>
</svg>
