<svg width="21" height="20" viewBox="0 0 21 20" fill="none" xmlns="http://www.w3.org/2000/svg">
<path d="M2.50909 0C1.13326 0 0 1.12916 0 2.5C0 3.87084 1.13326 5 2.50909 5C3.88492 5 5.01818 3.87084 5.01818 2.5C5.01818 1.12916 3.88492 0 2.50909 0ZM0.836364 5.83333C0.614553 5.83336 0.401834 5.92116 0.244991 6.07744C0.0881468 6.23371 2.21777e-05 6.44566 0 6.66667V19.1667C2.21777e-05 19.3877 0.0881468 19.5996 0.244991 19.7559C0.401834 19.9122 0.614553 20 0.836364 20H4.18182C4.40363 20 4.61635 19.9122 4.77319 19.7559C4.93004 19.5996 5.01816 19.3877 5.01818 19.1667V6.66667C5.01816 6.44566 4.93004 6.23371 4.77319 6.07744C4.61635 5.92116 4.40363 5.83336 4.18182 5.83333H0.836364ZM7.52727 5.83333C7.30546 5.83336 7.09274 5.92116 6.9359 6.07744C6.77906 6.23371 6.69093 6.44566 6.69091 6.66667V19.1667C6.69093 19.3877 6.77906 19.5996 6.9359 19.7559C7.09274 19.9122 7.30546 20 7.52727 20H10.8727C11.0945 20 11.3073 19.9122 11.4641 19.7559C11.6209 19.5996 11.7091 19.3877 11.7091 19.1667V12.9167C11.7091 11.767 12.6462 10.8333 13.8 10.8333C14.9538 10.8333 15.8909 11.767 15.8909 12.9167V15V19.1667C15.8909 19.3877 15.9791 19.5996 16.1359 19.7559C16.2927 19.9122 16.5055 20 16.7273 20H20.0727C20.2945 20 20.5073 19.9122 20.6641 19.7559C20.8209 19.5996 20.9091 19.3877 20.9091 19.1667V12.0833C20.9091 8.64134 18.0909 5.83333 14.6364 5.83333C13.5604 5.83333 12.5954 6.18013 11.7091 6.65853C11.7069 6.43894 11.6178 6.22907 11.4612 6.07455C11.3046 5.92003 11.0931 5.83335 10.8727 5.83333H7.52727Z" fill="#F1F1F1"/>
</svg>
