<svg width="0" height="0" class="hidden">
  <symbol xmlns="http://www.w3.org/2000/svg" viewBox="0 0 33 22" id="icon_email">
    <path d="M3.3 0C1.49053 0 0 1.49053 0 3.3V18.7C0 20.5095 1.49053 22 3.3 22H29.7C31.5095 22 33 20.5095 33 18.7V3.3C33 1.49053 31.5095 0 29.7 0H3.3ZM3.75547 2.2H29.2424L19.4455 11.9818C17.8034 13.6213 15.1765 13.6211 13.5352 11.9797L3.75547 2.2ZM30.8 3.75332V18.2467L23.5426 11L30.8 3.75332ZM2.2 3.75547L9.44453 11L2.2 18.2445V3.75547ZM21.9871 12.5533L29.2445 19.8H3.75547L11 12.5555L11.9797 13.5352C14.4611 16.0166 18.5159 16.0184 20.9988 13.5395L21.9871 12.5533Z" fill="white"></path>
  </symbol>
  <symbol xmlns="http://www.w3.org/2000/svg" viewBox="0 0 30 30" id="icon_github">
    <path d="M15 0C6.71559 0 0 6.71559 0 15C0 23.2844 6.71559 30 15 30C23.2844 30 30 23.2844 30 15C30 6.71559 23.2844 0 15 0ZM15 0.882353C22.7974 0.882353 29.1176 7.20265 29.1176 15C29.1176 21.4552 24.7809 26.8871 18.8655 28.5696C18.7452 28.3877 18.6576 28.1756 18.6638 27.9268C18.6877 26.9942 18.6638 24.8202 18.6638 24.0217C18.6638 22.6514 17.797 21.6797 17.797 21.6797C17.797 21.6797 24.599 21.7567 24.599 14.4985C24.599 11.6979 23.1376 10.2401 23.1376 10.2401C23.1376 10.2401 23.9055 7.24967 22.8705 5.98173C21.7102 5.85644 19.6316 7.09099 18.7448 7.66716C18.7448 7.66716 17.3408 7.09157 15.0017 7.09157C12.6626 7.09157 11.2569 7.66716 11.2569 7.66716C10.3692 7.09099 8.2915 5.85644 7.1312 5.98173C6.0962 7.24967 6.86409 10.2401 6.86409 10.2401C6.86409 10.2401 5.40097 11.6962 5.40097 14.4968C5.40097 21.755 12.203 21.678 12.203 21.678C12.203 21.678 11.5181 22.4499 11.3672 23.5857C10.898 23.752 10.249 23.9528 9.63006 23.9528C8.15388 23.9528 7.03227 22.5173 6.62109 21.8537C6.21521 21.199 5.38381 20.6491 4.60823 20.6491C4.09734 20.6491 3.84651 20.9051 3.84651 21.1972C3.84651 21.4892 4.56267 21.692 5.03562 22.2329C6.03267 23.3738 6.01486 25.9415 9.56457 25.9415C9.98294 25.9415 10.7342 25.8465 11.3362 25.764C11.3323 26.5972 11.323 27.4095 11.3362 27.9251C11.3424 28.1743 11.2551 28.3875 11.1345 28.5696C5.21908 26.8871 0.882353 21.4552 0.882353 15C0.882353 7.20265 7.20265 0.882353 15 0.882353Z" fill="#F1F1F1"></path>
  </symbol>
  <symbol xmlns="http://www.w3.org/2000/svg" viewBox="0 0 21 20" id="icon_linkedin">
    <path d="M2.50909 0C1.13326 0 0 1.12916 0 2.5C0 3.87084 1.13326 5 2.50909 5C3.88492 5 5.01818 3.87084 5.01818 2.5C5.01818 1.12916 3.88492 0 2.50909 0ZM0.836364 5.83333C0.614553 5.83336 0.401834 5.92116 0.244991 6.07744C0.0881468 6.23371 2.21777e-05 6.44566 0 6.66667V19.1667C2.21777e-05 19.3877 0.0881468 19.5996 0.244991 19.7559C0.401834 19.9122 0.614553 20 0.836364 20H4.18182C4.40363 20 4.61635 19.9122 4.77319 19.7559C4.93004 19.5996 5.01816 19.3877 5.01818 19.1667V6.66667C5.01816 6.44566 4.93004 6.23371 4.77319 6.07744C4.61635 5.92116 4.40363 5.83336 4.18182 5.83333H0.836364ZM7.52727 5.83333C7.30546 5.83336 7.09274 5.92116 6.9359 6.07744C6.77906 6.23371 6.69093 6.44566 6.69091 6.66667V19.1667C6.69093 19.3877 6.77906 19.5996 6.9359 19.7559C7.09274 19.9122 7.30546 20 7.52727 20H10.8727C11.0945 20 11.3073 19.9122 11.4641 19.7559C11.6209 19.5996 11.7091 19.3877 11.7091 19.1667V12.9167C11.7091 11.767 12.6462 10.8333 13.8 10.8333C14.9538 10.8333 15.8909 11.767 15.8909 12.9167V15V19.1667C15.8909 19.3877 15.9791 19.5996 16.1359 19.7559C16.2927 19.9122 16.5055 20 16.7273 20H20.0727C20.2945 20 20.5073 19.9122 20.6641 19.7559C20.8209 19.5996 20.9091 19.3877 20.9091 19.1667V12.0833C20.9091 8.64134 18.0909 5.83333 14.6364 5.83333C13.5604 5.83333 12.5954 6.18013 11.7091 6.65853C11.7069 6.43894 11.6178 6.22907 11.4612 6.07455C11.3046 5.92003 11.0931 5.83335 10.8727 5.83333H7.52727Z" fill="#F1F1F1"></path>
  </symbol>
  <symbol xmlns="http://www.w3.org/2000/svg" viewBox="0 0 36 22" id="iconbehance">
    <path d="M0.1875 0.681641V21.735H10.8008C11.7842 21.735 18.5566 21.5439 18.5566 15.6182C18.5566 11.9152 15.8987 10.6571 14.5488 10.2837C15.5415 9.83471 17.5176 8.76781 17.5176 5.90942C17.5176 4.31797 17.281 0.681641 10.5039 0.681641H0.1875ZM24.3828 2.63761V4.55802H32.584V2.63761H24.3828ZM5.01172 4.27352H9.53906C9.96582 4.27352 12.8418 4.05569 12.8418 6.69181C12.8418 8.94563 10.7637 9.18123 9.91016 9.18123H5.01172V4.27352ZM28.6875 6.30062C22.4856 6.30062 21.1914 11.4617 21.1914 13.6978C21.1914 20.3347 26.8691 21.0949 28.6875 21.0949C33.5906 21.0949 34.9822 18.0542 35.5527 16.365H31.9902C31.8511 16.8006 30.812 18.2143 28.8359 18.2143C25.5239 18.2143 25.2363 15.7337 25.2363 14.6224H35.7754C35.9888 10.7816 34.2353 6.30062 28.6875 6.30062ZM28.5762 9.18123C29.5642 9.18123 30.3621 9.45685 30.8398 9.96362C31.3176 10.4748 31.6702 11.2217 31.7676 12.2041H25.2363C25.2549 11.9329 25.3198 11.6218 25.4219 11.2795C25.5239 10.9283 25.6816 10.5949 25.9414 10.2837C26.2012 9.97696 26.563 9.71024 26.9805 9.5013C27.4072 9.28792 27.936 9.18123 28.5762 9.18123ZM5.01172 12.3464H10.2441C11.2832 12.3464 13.7324 12.5019 13.7324 15.3692C13.7324 18.1476 10.6477 18.1431 10.1699 18.1431H5.01172V12.3464Z" fill="white"></path>
  </symbol>
</svg>