<svg width="36" height="22" viewBox="0 0 36 22" fill="none" xmlns="http://www.w3.org/2000/svg">
<path d="M0.1875 0.681641V21.735H10.8008C11.7842 21.735 18.5566 21.5439 18.5566 15.6182C18.5566 11.9152 15.8987 10.6571 14.5488 10.2837C15.5415 9.83471 17.5176 8.76781 17.5176 5.90942C17.5176 4.31797 17.281 0.681641 10.5039 0.681641H0.1875ZM24.3828 2.63761V4.55802H32.584V2.63761H24.3828ZM5.01172 4.27352H9.53906C9.96582 4.27352 12.8418 4.05569 12.8418 6.69181C12.8418 8.94563 10.7637 9.18123 9.91016 9.18123H5.01172V4.27352ZM28.6875 6.30062C22.4856 6.30062 21.1914 11.4617 21.1914 13.6978C21.1914 20.3347 26.8691 21.0949 28.6875 21.0949C33.5906 21.0949 34.9822 18.0542 35.5527 16.365H31.9902C31.8511 16.8006 30.812 18.2143 28.8359 18.2143C25.5239 18.2143 25.2363 15.7337 25.2363 14.6224H35.7754C35.9888 10.7816 34.2353 6.30062 28.6875 6.30062ZM28.5762 9.18123C29.5642 9.18123 30.3621 9.45685 30.8398 9.96362C31.3176 10.4748 31.6702 11.2217 31.7676 12.2041H25.2363C25.2549 11.9329 25.3198 11.6218 25.4219 11.2795C25.5239 10.9283 25.6816 10.5949 25.9414 10.2837C26.2012 9.97696 26.563 9.71024 26.9805 9.5013C27.4072 9.28792 27.936 9.18123 28.5762 9.18123ZM5.01172 12.3464H10.2441C11.2832 12.3464 13.7324 12.5019 13.7324 15.3692C13.7324 18.1476 10.6477 18.1431 10.1699 18.1431H5.01172V12.3464Z" fill="white"/>
</svg>
